<svg xmlns="http://www.w3.org/2000/svg" viewBox="0 0 358 492" preserveAspectRatio="none"><defs><linearGradient id="c" x1="19" x2="342.6" y1="243.9" y2="243.9" gradientUnits="userSpaceOnUse"><stop offset="0" stop-color="#e6e6e6"/><stop offset="1" stop-color="#fff"/></linearGradient><linearGradient id="d" x1="21" x2="340.6" y1="243.9" y2="243.9" gradientUnits="userSpaceOnUse"><stop offset="0" stop-color="#fff"/><stop offset="1" stop-color="#e6e6e6"/></linearGradient></defs><g style="isolation:isolate"><path d="M76 477a57 57 0 01-57-57V68a57 57 0 0157-57h210a57 57 0 0157 57v352a57 57 0 01-57 57z" style="fill:url(#c)"/><path d="M341 68v352a55 55 0 01-55 55H76a55 55 0 01-55-55V68a55 55 0 0155-55h210a55 55 0 0155 55z" style="fill:url(#d)"/></g></svg>