<svg xmlns="http://www.w3.org/2000/svg" viewBox="0 0 223 192" preserveAspectRatio="none"><defs/><defs><clipPath id="a"><path fill="none" d="M0-192h648v384H0z"/></clipPath></defs><g clip-path="url(#a)"><path fill="#3c34b7" d="M218 215c5-10-5-23-16-26s-23-1-35 0-25 2-34-5c-9-8-12-22-23-28-18-11-42 9-63 2-10-3-17-13-22-22s-11-20-21-25-24-3-27 7l23 91z"/><path fill="#f08299" d="M-6 72l36 40c4 4 10 9 15 6 4-3 3-10 0-14s-8-6-13-8C17 86 13 67 10 49S4 12-9 0a5 5 0 00-4-1c-2 0-3 1-4 3a62 62 0 00-4 44A62 62 0 005 81"/></g></svg>