<svg xmlns="http://www.w3.org/2000/svg" viewBox="0 0 415 366"><defs><clipPath id="a"><path d="M77 29a15 15 0 00-8 15 20 20 0 0010 15 19 19 0 0013 2 20 20 0 0010-6 18 18 0 005-13 19 19 0 00-25-17 18 18 0 00-11 10" style="fill:none"/></clipPath><clipPath id="b"><path d="M393 119a10 10 0 00-12-1 13 13 0 00-6 11 13 13 0 002 8 13 13 0 007 5 12 12 0 0010-1 13 13 0 006-9 13 13 0 00-3-11 12 12 0 00-10-4" style="fill:none"/></clipPath><clipPath id="c"><path d="M29 128a6 6 0 00-7-1 8 8 0 00-4 6 7 7 0 002 5 8 8 0 004 3 7 7 0 005 0 8 8 0 004-6 8 8 0 00-2-6 7 7 0 00-6-2" style="fill:none"/></clipPath><clipPath id="d"><path d="M55 271c-6-5-15-5-23-1s-13 13-13 21a26 26 0 005 17 27 27 0 0014 9 25 25 0 0019-2c6-3 11-11 12-18a26 26 0 00-6-22 25 25 0 00-19-7" style="fill:none"/></clipPath><clipPath id="e"><path d="M296 26s-54-9-123 55l43 54s79-53 80-109z" style="fill:none"/></clipPath></defs><g style="isolation:isolate"><g style="clip-path:url(#a)"><path d="M77 29a15 15 0 00-8 15 20 20 0 0010 15 19 19 0 0013 2 20 20 0 0010-6 18 18 0 005-13 19 19 0 00-25-17 18 18 0 00-11 10" style="fill:#ff9566"/><g style="opacity:.19"><path d="M84 63c-3-3-3-9-1-13s7-5 11-9a17 17 0 004-11c0-5 0-11-4-14a4 4 0 00-7 2c-1 5 3 10 1 15-1 4-7 6-10 9a17 17 0 00-5 12c0 6 3 9 7 13 3 2 7-2 4-4z" style="fill:#ffcab3"/></g><g style="opacity:.19"><path d="M91 63c1-3-1-6 1-9s6-5 9-7c4-3 8-9 7-15a2 2 0 00-5 0c-1 3-1 7-4 10-2 3-6 4-9 7-4 3-7 12-2 15a2 2 0 003-1z" style="fill:#ffcab3"/></g><g style="opacity:.19"><path d="M82 22c2 3 0 8-3 10l-7 5c-3 2-6 4-5 8a1 1 0 002 1 25 25 0 016-7c3-2 6-3 8-6 3-4 4-9-1-11z" style="fill:#ffcab3"/></g><g style="opacity:.19"><path d="M101 61l2-4a13 13 0 015-3c3-2 1-7-2-6a11 11 0 00-8 5 11 11 0 00-2 3 13 13 0 000 4 2 2 0 005 1z" style="fill:#ffcab3"/></g></g><g style="clip-path:url(#b)"><path d="M393 119a10 10 0 00-12-1 13 13 0 00-6 11 13 13 0 002 8 13 13 0 007 5 12 12 0 0010-1 13 13 0 006-9 13 13 0 00-3-11 12 12 0 00-10-4" style="fill:#f08299"/><g style="opacity:.19"><path d="M374 133c1-2 5-4 8-4s5 3 8 4a12 12 0 008-1c3-1 7-3 8-7a3 3 0 00-3-3c-4 0-6 5-9 5s-6-3-9-4a12 12 0 00-9 1c-3 2-4 4-5 8-1 2 2 4 3 1z" style="fill:#ffcab3"/></g><g style="opacity:.19"><path d="M376 138c2-1 4-3 6-2l6 3c4 2 9 2 12 0a2 2 0 00-1-3h-7c-3 0-5-2-8-3-3-2-9-1-10 3a1 1 0 002 2z" style="fill:#ffcab3"/></g><g style="opacity:.19"><path d="M398 120c-1 2-4 2-6 1a34 34 0 01-5-3c-2-1-5-2-7 0a1 1 0 000 1 17 17 0 016 2l6 3c3 1 6 0 7-4h-1z" style="fill:#ffcab3"/></g><g style="opacity:.19"><path d="M380 143a7 7 0 014 0 9 9 0 013 2c1 1 4-1 3-3a7 7 0 00-6-3 8 8 0 00-2 0 9 9 0 00-3 1 1 1 0 001 3z" style="fill:#ffcab3"/></g></g><g style="clip-path:url(#c)"><path d="M29 128a6 6 0 00-7-1 8 8 0 00-4 6 7 7 0 002 5 8 8 0 004 3 7 7 0 005 0 8 8 0 004-6 8 8 0 00-2-6 7 7 0 00-6-2" style="fill:#fde17e"/><g style="opacity:.19"><path d="M18 136c0-2 3-3 4-3 2 0 3 2 5 3a7 7 0 005-1c2 0 4-2 4-4a2 2 0 00-2-1l-5 2c-2 1-3-1-5-2a7 7 0 00-5 1c-2 1-3 2-3 4-1 1 1 2 2 1z" style="fill:#fff"/></g><g style="opacity:.19"><path d="M19 138l3-1 4 2c2 1 5 2 7 0a1 1 0 00-1-1 12 12 0 01-4 0l-4-2c-2-1-6-1-6 2a1 1 0 001 0z" style="fill:#fff"/></g><g style="opacity:.19"><path d="M32 128c-1 2-3 1-4 1a20 20 0 01-3-2h-4a1 1 0 000 1 10 10 0 014 1 18 18 0 003 2c2 0 4-1 4-3z" style="fill:#fff"/></g><g style="opacity:.19"><path d="M21 141a4 4 0 012 1 5 5 0 012 1c1 1 3-1 2-2a4 4 0 00-3-2 5 5 0 00-2 0 5 5 0 00-1 1 1 1 0 000 1z" style="fill:#ffcab3"/></g></g><g style="clip-path:url(#d)"><path d="M55 271c-6-5-15-5-23-1s-13 13-13 21a26 26 0 005 17 27 27 0 0014 9 25 25 0 0019-2c6-3 11-11 12-18a26 26 0 00-6-22 25 25 0 00-19-7" style="fill:#2a2a8c"/><g style="opacity:.43"><path d="M18 300c2-6 9-9 15-9s11 6 16 8a23 23 0 0017-1c6-3 14-8 15-14a6 6 0 00-6-6c-7 0-11 9-18 9-6 1-11-5-17-7a24 24 0 00-18 1c-7 4-9 9-11 16-2 5 5 8 7 3z" style="fill:#3c34b7"/></g><g style="opacity:.43"><path d="M22 308c4-1 7-4 11-4 5 1 9 5 13 7 7 4 17 5 23 0a3 3 0 00-2-6c-5 1-9 2-14 1-6-1-10-5-15-7-6-3-18-2-20 6 0 2 2 4 4 3z" style="fill:#3c34b7"/></g><g style="opacity:.43"><path d="M66 273c-2 5-9 4-13 3l-10-6c-5-3-9-5-14-2a2 2 0 001 3 34 34 0 0111 4c4 2 8 5 13 6 6 2 12-1 13-8h-1z" style="fill:#3c34b7"/></g><path d="M30 319h7a18 18 0 016 4c3 3 8-2 6-6a15 15 0 00-11-6 16 16 0 00-5 0l-5 2c-3 2-2 7 2 6z" style="fill:#3c34b7"/></g><path d="M113 84v1a2 2 0 003 0l1-1a2 2 0 10-4 0z" style="fill:#ededeb;opacity:.54"/><g style="opacity:.54"><path d="M58 62a1 1 0 000-1 1 1 0 000 1z" style="fill:#ededeb"/></g><g style="opacity:.54"><path d="M57 124z" style="fill:#ededeb"/></g><g style="opacity:.54"><path d="M184 28a1 1 0 000-2 1 1 0 000 2z" style="fill:#ededeb"/></g><g style="opacity:.54"><path d="M400 168a1 1 0 000-3 1 1 0 000 3z" style="fill:#ededeb"/></g><g style="opacity:.54"><path d="M340 155a1 1 0 000-3 1 1 0 000 3z" style="fill:#ededeb"/></g><g style="opacity:.54"><path d="M363 116a1 1 0 000-2 1 1 0 000 2z" style="fill:#ededeb"/></g><path d="M35 248a8 8 0 001 0 1 1 0 000-2 8 8 0 00-1 0v2z" style="fill:#ededeb;opacity:.54"/><g style="opacity:.54"><path d="M96 240v-1 1z" style="fill:#ededeb"/></g><path d="M42 174h-1v2h1a1 1 0 000-2h-1v2h1a1 1 0 000-2z" style="fill:#ededeb;opacity:.54"/><g style="opacity:.54"><path d="M109 134z" style="fill:#ededeb"/></g><g style="opacity:.54"><path d="M0 97a1 1 0 000-2 1 1 0 000 2z" style="fill:#ededeb"/></g><g style="opacity:.54"><path d="M63 10a1 1 0 000-2 1 1 0 000 2z" style="fill:#ededeb"/></g><path d="M208 55a1 1 0 00-2 0 1 1 0 002 0z" style="fill:#ededeb;opacity:.54"/><g style="opacity:.54"><path d="M411 10a1 1 0 000-2 1 1 0 000 2z" style="fill:#ededeb"/></g><path d="M27 114l1-1a3 3 0 000-1 3 3 0 00-3-3 4 4 0 00-1 1 3 3 0 103 4zM400 128a3 3 0 00-3 1 3 3 0 000 4 3 3 0 003 1 3 3 0 000-6z" style="fill:#ededeb;opacity:.54"/><g style="opacity:.54"><path d="M415 86a1 1 0 000-2 1 1 0 000 2z" style="fill:#ededeb"/></g><g style="opacity:.54"><path d="M72 253a1 1 0 000-3 1 1 0 000 3z" style="fill:#ededeb"/></g><g style="opacity:.54"><path d="M133 275a1 1 0 000-2 1 1 0 000 2z" style="fill:#ededeb"/></g><g style="opacity:.54"><path d="M378 177a2 2 0 000-3 2 2 0 000 3z" style="fill:#ededeb"/></g><g style="opacity:.54"><path d="M315 124a1 1 0 000-3 1 1 0 000 3z" style="fill:#ededeb"/></g><path d="M159 289c-10-15-1-36 12-47s31-17 47-25c19-10 36-24 57-28 17-2 35 3 47 15s21 27 23 44c4 34-19 69-51 79s-71-4-88-34" style="fill:#ededeb"/><path d="M178 282s15-60 76-52 58 61 58 61l-33 2 1 37c-18 2-46-4-79-9l1-26z" style="fill:#7443de"/><path d="M312 290v1c0 7-3 46-14 45s-20-6-19-43l33-3" style="fill:#f5ac8e"/><path d="M285 328s23-51 35-64l13 12s-21 62-34 60-14-8-14-8zM180 283l-8 24 27 16 3-28-22-12z" style="fill:#f5ac8e"/><path d="M237 222l-2 16s20 12 32-4l8-58c-11-13-24-15-38-6 0 0-19 46 0 52z" style="fill:#f5ad8c"/><path d="M237 186a6 6 0 012-3 2 2 0 014 2h1c0-2-2-3-3-3-3 0-4 2-5 4h1z" style="fill:#222221"/><path d="M248 196a4 4 0 01-2 2 3 3 0 01-2 0 3 3 0 01-1-1 3 3 0 01-1-1 6 6 0 010-2l1-2c2-6 5-10 6-10l-4 10-1 2a5 5 0 000 2 1 1 0 000 1 2 2 0 001 0 5 5 0 002-1h1zM244 203c2 1 6 0 7-3a12 12 0 01-3 2 7 7 0 01-4 1c-1-1-1 0 0 0z" style="fill:#f18474"/><path d="M250 199a2 2 0 011 1 4 4 0 011 1 2 2 0 000-2 2 2 0 00-2 0s0 1 0 0z" style="fill:#f18474"/><path d="M258 188a3 3 0 014-2 4 4 0 012 3h1a4 4 0 00-3-4 4 4 0 00-4 3c-1 0 0 0 0 0z" style="fill:#222221"/><path d="M238 171a57 57 0 0110-4 19 19 0 0110-1c4 1 7 4 10 7 2 1 3 3 4 6 1 2 0 5-1 8a71 71 0 00-2 9 8 8 0 000 3 3 3 0 002 3l2-1a64 64 0 0010-18c1-3 2-6 1-9s-3-6-6-6h-6c-2 0-3-2-5-4a29 29 0 00-20-9 18 18 0 00-9 1 10 10 0 00-5 7 7 7 0 003 8z" style="fill:#2a2a8c"/><path d="M272 196a4 4 0 014-1 4 4 0 012 4 6 6 0 01-2 4 5 5 0 01-6 0" style="fill:#f5ad8c"/><path d="M238 177a17 17 0 003 0 24 24 0 015 0 1 1 0 000-3c-3 0-7 0-9 2a1 1 0 001 1zM261 178a10 10 0 013 2 32 32 0 013 2 1 1 0 001-1 8 8 0 00-3-3 10 10 0 00-2-1 17 17 0 00-2 0v1z" style="fill:#2a2a8c"/><path d="M277 198a2 2 0 00-2-2c-2 0-3 2-3 3h1a2 2 0 012 1c1 1 0 2-1 1l-1 1a2 2 0 003-2c0-2-2-2-4-1h1a3 3 0 011-2 1 1 0 012 1h1z" style="fill:#f18474"/><path d="M240 182a3 3 0 00-1 2 2 2 0 000 1 2 2 0 002 1 2 2 0 001-1 2 2 0 000-2 2 2 0 00-2-1M260 185a3 3 0 000 2 2 2 0 000 2 2 2 0 002 0 2 2 0 001-1 2 2 0 00-1-2 2 2 0 00-2 0" style="fill:#222221"/><path d="M308 282c1 1-5 9-10 20l-10 20 2-6a151 151 0 0114-28l4-6zM293 308l-3 3-3 1 2-3 4-1z" style="fill:#f18474"/><path d="M337 269l-4 7-19-4 7-14-2-13c3-1 6 9 6 9s12-6 13-2a3 3 0 01-1 3s3-1 3 0c1 2-1 3-1 3a3 3 0 013 2c1 2-5 9-5 9z" style="fill:#f5ac8e"/><path d="M336 255l-1 1a15 15 0 01-6 3 2 2 0 01-1-1 2 2 0 01-1 0 1 1 0 010-1 3 3 0 011-2 10 10 0 011 0l2-1-2 1a10 10 0 000 1 3 3 0 00-1 1 1 1 0 000 1 1 1 0 001 0 21 21 0 005-2l2-1z" style="fill:#f18474"/><path d="M338 258l-1 2a15 15 0 01-5 2 4 4 0 01-1 0 2 2 0 01-1-1 2 2 0 01-1-1 2 2 0 011-1 3 3 0 011-1 4 4 0 00-1 1 1 1 0 000 2h2a27 27 0 004-2l2-1z" style="fill:#f18474"/><path d="M340 262l-1 1a7 7 0 01-3 2 3 3 0 01-2 0 2 2 0 01-1-1 2 2 0 011-2 3 3 0 010-1h1a6 6 0 00-1 1 1 1 0 002 2 9 9 0 003-1l1-1zM324 258a7 7 0 015 2 9 9 0 011 5h1c1-4-3-7-7-7z" style="fill:#f18474"/><path d="M241 184a4 4 0 001 0 4 4 0 00-1 0zM262 188a7 7 0 001 0v-1a7 7 0 00-1 0v1z" style="fill:#f2e7e2"/><path d="M271 201a21 21 0 016-12c2-2 5-4 6-7l-1-1-8 10a20 20 0 00-4 10h1zM241 156c-3 6 5 9 10 10-5-2-12-4-10-10z" style="fill:#4444ad"/><path d="M270 201c-1-7 3-13 5-19 2-4 3-9 1-13h-1c4 12-9 21-5 32zM268 172a15 15 0 00-5-10c-4-3-9-3-12-6 0-1-1 0 0 0 2 3 5 3 8 5 5 2 7 7 9 11 0 1 0 1 0 0z" style="fill:#4444ad"/><path d="M264 197a5 5 0 01-3 3 6 6 0 01-4 1c-3-1-5-4-4-7s4-4 7-3a7 7 0 014 2 4 4 0 010 4z" style="fill:#f18474;opacity:.39"/><path d="M167 131c-16 16-29 34-37 55s-11 44-4 65c8 25 28 45 51 57s49 18 75 22l8-1c4-3 2-10-2-12s-10-2-15-3a43 43 0 01-32-19c-3-5-6-11-12-14-7-3-14 1-21 1-13 0-21-12-27-23-6-10-11-20-13-31a154 154 0 0128-97M228 349a6 6 0 10-1 0" style="fill:#ededeb"/><path d="M234 326c-14-1-28 5-40-1l-11-8c-6-4-14-1-21-1a33 33 0 01-30-20c-1-3-2-7 0-10s7-4 11-3 7 4 9 7l9 9c9 4 20 0 27 5 6 4 9 11 15 14 7 4 31 0 31 8" style="fill:#f08299"/><path d="M147 147c-1 4-5 7-10 8s-9 4-10 8l-2 8c-2 4-7 5-8 9-1 3 2 7 5 8s8-1 10-4l4-10 4-10 4-7c1-2 4-8 3-10M107 213c0 1-3 4-1 7a6 6 0 1010-6 6 6 0 00-9-1" style="fill:#fde17e"/><path d="M139 205c2-2 5 0 6 3s1 5 0 8l-2 8c0 7 7 12 10 19 1 2 1 5 3 7 1 3 4 4 7 7s5 5 4 8c-1 4-5 6-9 5s-7-4-9-7a62 62 0 01-14-28 48 48 0 014-30" style="fill:#59d2e5"/><path d="M179 286a6 6 0 00-2 4 5 5 0 002 4 8 8 0 004 2l6-2a5 5 0 000-6 7 7 0 00-6-3 7 7 0 00-3 0 5 5 0 00-3 3" style="fill:#f08299"/><path d="M308 302c5 3 27-13 35-26s11-30 3-43l-5-9c-1-3-1-7 1-9 3-3 7-3 11-1s5 5 7 9c5 6 9 13 12 21s2 17-2 24c-3 7-10 12-16 17-4 5-8 11-13 15s-10 9-17 10-14-2-16-9M294 186c3-2 7-1 10 1l8 4c3 1 7 0 8-3 1-2 0-5-2-7a18 18 0 00-6-3c-3-2-7-3-11-3s-7 4-7 8M341 188a8 8 0 004 10 8 8 0 009-4 7 7 0 00-3-9c-4-2-9 0-10 3M181 251l7-16 5-17c4-10 10-18 20-23 2-1 0-5-2-4-10 4-17 13-21 22a117 117 0 00-6 17l-3 9c-1 4-1 8-3 11 0 2 2 3 3 1z" style="fill:#3c34b7"/><path d="M199 108a30 30 0 00-45 8l8-1-5 8c-1 3-1 7 2 8 2 2 5 1 7 1l8-1c3 1 5 3 4 5-1 4-8 4-9 8 0 3 2 5 5 5 8 3 17-3 21-10s5-17 4-26M163 148c1-2-1-4-2-4a4 4 0 00-5 3 3 3 0 004 4 4 4 0 003-5 2 2 0 00-1-1 2 2 0 00-2 2 1 1 0 011 0l1 1a1 1 0 001 0zM171 156a1 1 0 001 1 1 1 0 00-1-1z" style="fill:#fcbc00"/><path d="M237 116s8 48-43 45c0 0 24-11 21-27z" style="fill:#7443de"/><path d="M296 26s-53-9-122 57l42 52s79-53 80-109z" style="fill:#ededeb"/><path d="M216 135l-43-54-4 2 45 55 2-3z" style="fill:#39297f"/><path d="M214 91l-20 11-28 29s22-11 33-20c3-3 12-13 15-20zM193 66s-48-14-49 37c0 0 13-24 28-19z" style="fill:#5a39b5"/><g style="opacity:.1"><path d="M214 91s-28 0-32 2l11 14z" style="fill:#9797db"/></g><g style="clip-path:url(#e)"><path d="M258 30s13 25 27 34l22-21-16-32-33 18" style="fill:#7443de"/></g><path d="M247 51c-9-1-14 8-14 16s8 14 16 13a15 15 0 0012-17c-1-8-10-16-19-13a2 2 0 001 5c5 0 10 1 13 6s0 12-6 14c-15 6-19-22-3-22a1 1 0 000-2z" style="fill:#3c34b7"/><g style="opacity:.32"><path d="M247 52c-4 0-9 3-11 7a14 14 0 00-1 10 12 12 0 0021 5 13 13 0 001-16 14 14 0 00-14-6" style="fill:#3c34b7"/></g></g></svg>