<svg xmlns="http://www.w3.org/2000/svg" viewBox="0 0 58 38"><defs/><defs><clipPath id="clip-path"><path d="M-570-346H78V38h-648z" class="cls-1"/></clipPath><clipPath id="clip-path-3"><path d="M40 10c-6-5-15-6-22-2A26 26 0 005 29a25 25 0 005 16 26 26 0 0013 9 24 24 0 0018-1c7-4 11-11 12-19a25 25 0 00-6-20 24 24 0 00-18-8" class="cls-1"/></clipPath><style>.cls-1{fill:none}.cls-7{opacity:.43}.cls-8{fill:#3c34b7}</style></defs><g style="isolation:isolate"><g id="Objects" clip-path="url(#clip-path)"><g clip-path="url(#clip-path-3)"><path fill="#59d2e5" d="M40 10c-6-5-15-6-22-2A26 26 0 005 29a25 25 0 005 16 26 26 0 0013 9 24 24 0 0018-1c7-4 11-11 12-19a25 25 0 00-6-20 24 24 0 00-18-8"/><g class="cls-7"><path d="M4 38c2-6 9-9 14-9 6 0 11 5 16 7a22 22 0 0017-1c5-2 13-7 13-13a5 5 0 00-6-6c-6 1-9 9-16 9-6 1-11-5-17-7a23 23 0 00-17 1c-6 4-9 9-11 16-1 4 5 7 7 3z" class="cls-8"/></g><g class="cls-7"><path d="M8 46c4-2 6-4 11-4 4 0 8 4 12 6 7 4 16 5 22 0a3 3 0 00-2-5H37c-5-1-9-5-13-7-7-2-18-1-20 7 0 2 2 3 4 3z" class="cls-8"/></g><g class="cls-7"><path d="M50 12c-2 4-9 4-13 2l-9-6c-4-2-9-4-14-1a2 2 0 001 3 33 33 0 0111 3l12 6c7 2 12 0 13-7h-1z" class="cls-8"/></g></g></g></g></svg>