<svg xmlns="http://www.w3.org/2000/svg" xmlns:xlink="http://www.w3.org/1999/xlink" viewBox="0 0 751 500"><defs><linearGradient id="c" x1="376.9" x2="407.6" y1="227.1" y2="227.1" gradientUnits="userSpaceOnUse"><stop offset="0" stop-color="#00a388"/><stop offset="1" stop-color="#00a388" stop-opacity="0"/></linearGradient><linearGradient id="e" x1="411.1" x2="462.4" y1="322.9" y2="322.9" gradientUnits="userSpaceOnUse"><stop offset="0" stop-color="#ec4963"/><stop offset="1" stop-color="#ec4963" stop-opacity="0"/></linearGradient><radialGradient id="a" cx="596.1" cy="250.3" r="595.6" gradientTransform="matrix(1.5 0 0 1 -519 0)" gradientUnits="userSpaceOnUse"><stop offset="0" stop-color="#fff"/><stop offset="1"/></radialGradient><clipPath id="d"><circle cx="288.8" cy="110" r="12.1" style="fill:none"/></clipPath></defs><g style="isolation:isolate"><path d="M0 1h750v500H0z" style="fill:#0e0033"/><g style="mix-blend-mode:soft-light"><path d="M0 0h750v500H0z" style="fill:url(#a)"/></g><path d="M630 450a3 3 0 11-2-3 3 3 0 012 3zM179 19a1 1 0 11-1-1 1 1 0 011 1z" style="fill:#0ff"/><circle cx="167.5" cy="80.6" r=".5" style="fill:#0ff"/><path d="M550 110a2 2 0 11-2-1 2 2 0 012 1zM278 64a1 1 0 11-1-1 1 1 0 011 1zM288 55a1 1 0 010 1 1 1 0 010-1zM451 34a1 1 0 01-1 1 1 1 0 010-1 1 1 0 011 0z" style="fill:#0ff"/><circle cx="463.8" cy="157.3" r="1.1" style="fill:#0ff"/><path d="M322 177a2 2 0 11-1-2 2 2 0 011 2z" style="fill:#0ff"/><circle cx="276.9" cy="221.5" r=".3" style="fill:#0ff"/><circle cx="649.8" cy="110.7" r="1.1" style="fill:#0ff"/><circle cx="318.6" cy="284.7" r="1.8" style="fill:#0ff"/><path d="M554 484a1 1 0 101-1 1 1 0 00-1 1zM521 278a2 2 0 11-2-2 2 2 0 012 2zM629 309a1 1 0 11-1-1 1 1 0 011 1z" style="fill:#0ff"/><circle cx="579.8" cy="256.5" r=".3" style="fill:#0ff"/><path d="M599 401a1 1 0 101-1 1 1 0 00-1 1zM451 263z" style="fill:#0ff"/><path d="M547 203a5 5 0 000 3l4 2c6 0 11-3 16-6 3-3 7-6 8-10v-6a5 5 0 00-5-2 11 11 0 00-5 1 23 23 0 00-7 7c-1 2-3 5-1 7 1 1 6-1 8-4a9 9 0 01-6 5c-2 0-4 0-5-2a4 4 0 010-2 22 22 0 018-12 21 21 0 0113-5 7 7 0 015 2 7 7 0 012 4 19 19 0 01-2 11 24 24 0 01-5 6c-7 6-14 11-23 11-3 0-6-1-7-3v-8a39 39 0 015-11l-2 5a14 14 0 00-1 7zM249 98l2 1a49 49 0 01-19-2l-2-2a42 42 0 0124 1l2 2a2 2 0 01-1 1 8 8 0 01-4 2 50 50 0 01-24-3l-4-3a1 1 0 011 0 43 43 0 017-3c-4 2-8 0-10 3a2 2 0 00-1 1 1 1 0 000 1 7 7 0 004 2 55 55 0 0031 3 5 5 0 003-1c1-1 1-4-1-5l-5-2-12-1c-4 0-9 0-12 3l9 3 13 1 2-1-1-1a33 33 0 00-7-2l-7-1c4 0 9 1 12 3z" style="fill:#fff;opacity:.24;mix-blend-mode:soft-light"/><path d="M704 193l-1-6a1 1 0 00-2 0l-2 6-6 2a1 1 0 000 1l6 2 2 6a1 1 0 001 0l2-6a1 1 0 011 0l5-2a1 1 0 000-1l-5-2a1 1 0 01-1 0z" style="fill:#fff0a4"/><use transform="translate(656 150)" xlink:href="#b"/><path d="M83 54l-1-3h-1v3h-1l-3 1v1l3 1h1v3h1l1-3 3-1v-1l-3-1zM376 97v-2h-1v2h-3v1h3v2h1v-2h2v-1h-2zM585 23v-2h-1v2h-2v1h2v2h1v-1-1h2v-1h-2zM404 438l-1-6a1 1 0 00-2 0l-2 6-6 2a1 1 0 000 1l6 2 2 6a1 1 0 001 0l2-6a1 1 0 011 0l5-2a1 1 0 000-1l-5-2a1 1 0 01-1 0z" style="fill:#fff0a4"/><use transform="translate(356 395)" xlink:href="#b"/><path d="M377 239l31-29v7l-26 27-5-5z" style="fill:url(#c)"/><circle cx="379.6" cy="241.1" r="3.4" style="fill:#00a388"/><circle cx="288.8" cy="110" r="12.1" style="fill:#5ac9e3"/><g style="clip-path:url(#d)"><path d="M265 94h42v9h-42zM265 104h42v3h-42z" style="fill:#231f20;mix-blend-mode:soft-light"/><path d="M265 106h42v3h-42zM265 112h42v2h-42zM265 117h42v1h-42z" style="fill:#231f20;mix-blend-mode:soft-light"/></g><path d="M560 351l5-5h-6a8 8 0 011 2 8 8 0 010 3zM544 351c-3 2-5 4-4 5h6a8 8 0 01-1-2 8 8 0 01-1-3z" style="fill:none"/><path d="M548 358a8 8 0 0012-4l-6 2-6 2z" style="fill:#92278f"/><path d="M558 345a8 8 0 011 1h6l-5 5a44 44 0 01-7 3 46 46 0 01-7 2h-6c0-1 1-3 4-5a7 7 0 010-1c-6 3-10 6-9 8s6 2 13 0l6-2 6-2c6-3 11-7 10-9s-6-2-12 0z" style="fill:#ff80ff"/><path d="M559 346a8 8 0 00-1-1 8 8 0 00-14 5 7 7 0 000 1 8 8 0 001 3 8 8 0 001 2 46 46 0 008-2 44 44 0 006-3 8 8 0 000-3 8 8 0 00-1-2z" style="fill:#92278f"/><path d="M411 343l51-48v11l-43 45-8-8z" style="fill:url(#e)"/><path d="M481 400a6 6 0 11-5-6 6 6 0 015 6z" style="fill:#ec4963"/><circle cx="645.5" cy="274.9" r="2.5" style="fill:#0ff"/><circle cx="672.5" cy="178.9" r=".5" style="fill:#0ff"/><circle cx="698.5" cy="149.9" r=".5" style="fill:#0ff"/><circle cx="670.5" cy="52" r="1.5" style="fill:#0ff"/><circle cx="712.5" cy="37" r="2.5" style="fill:#0ff"/><circle cx="664" cy="368.4" r="1" style="fill:#0ff"/><circle cx="700.5" cy="360.9" r="1.5" style="fill:#0ff"/><circle cx="687" cy="430.4" r="2" style="fill:#0ff"/></g></svg>