<svg xmlns="http://www.w3.org/2000/svg" xmlns:xlink="http://www.w3.org/1999/xlink" viewBox="0 0 750 500" preserveAspectRatio="none">
<defs><linearGradient id="a" x1="342.3" x2="379.4" y1="258.4" y2="345.5" gradientUnits="userSpaceOnUse"><stop offset="0" stop-color="#270c66"/><stop offset="1" stop-color="#140635"/></linearGradient><linearGradient id="e" x1="28.4" x2="41" y1="479.4" y2="505" xlink:href="#a"/><linearGradient id="f" x1="620.7" x2="629.3" y1="206" y2="226.3" xlink:href="#a"/><linearGradient id="g" x1="288.3" x2="297" y1="327" y2="347.3" xlink:href="#a"/><linearGradient id="b" x1="289.3" x2="715.5" y1="421.9" y2="311.6" gradientUnits="userSpaceOnUse"><stop offset="0" stop-color="#fc7a4b"/><stop offset=".5" stop-color="#cf0054"/><stop offset="1" stop-color="#790054"/></linearGradient><linearGradient id="h" x1="97.9" x2="716.6" y1="562" y2="202.8" xlink:href="#b"/><linearGradient id="i" x1="141.2" x2="624.1" y1="472.9" y2="214.6" xlink:href="#b"/><linearGradient id="j" x1="35.5" x2="307.8" y1="509.8" y2="361.1" xlink:href="#b"/><linearGradient id="c" x1="21.4" x2="247.8" y1="444" y2="444" gradientUnits="userSpaceOnUse"><stop offset="0" stop-color="#ffffc2"/><stop offset="1" stop-color="#142c6f"/></linearGradient><linearGradient id="k" x1="142.7" x2="529.9" y1="398.2" y2="398.2" xlink:href="#c"/><linearGradient id="l" x1="294" x2="842.2" y1="532.8" y2="68" xlink:href="#c"/><linearGradient id="m" x1="389.7" x2="853" y1="552.6" y2="305.3" xlink:href="#c"/><clipPath id="d"><path d="M0 0h750v500H0z" style="fill:none"/></clipPath><clipPath id="n"><path d="M755 95v415H7c75-17 78-78 124-109 41-27 94-2 157-47a198 198 0 0023-18c93-90 213-41 278-77a111 111 0 0025-19v-1c49-49 76-143 141-144z" style="fill:none"/></clipPath></defs><g style="isolation:isolate"><path d="M0 0h750v500H0z" style="fill:#140635"/><g style="clip-path:url(#d)"><path d="M-23 444c89 16 136-19 152-36s66-96 137-105c61-7 104 9 180-16s72-91 138-141 174-32 174-32L546 364 109 503s-130 28-130 23l-2-82z" style="fill:url(#a)"/><path d="M-29 472c53 42 104-20 118-10s-35 67-35 67-41 22-54 8-33-35-34-43 5-22 5-22z" style="fill:url(#e)"/><path d="M712 203c-78-24-137 10-153 74 9-3 153-74 153-74z" style="fill:url(#f)"/><path d="M379 324c-78-24-136 10-153 74 10-3 153-74 153-74z" style="fill:url(#g)"/><path d="M755 95v415H7c75-17 78-78 124-109 41-27 94-2 157-47a198 198 0 0023-18c93-90 213-41 278-77a111 111 0 0025-19v-1c49-49 76-143 141-144z" style="fill:url(#b)"/><path d="M755 95v222c-41 36-102 64-172 64-107 1-226 57-243 129H7c75-17 78-78 124-109 41-27 94-2 157-47a198 198 0 0023-18c93-90 213-41 278-77a111 111 0 0025-19v-1c49-49 76-143 141-144z" style="fill:url(#h)"/><path d="M614 240c-69 71-154 167-275 187-75 13-115 54-134 83H7c75-17 78-78 124-109 41-27 94-2 157-47a198 198 0 0023-18c50-48 107-56 159-59l60-3c22-2 43-6 59-15a111 111 0 0025-19z" style="fill:url(#i)"/><path d="M288 354c-42 36-64 125-154 156H7c75-17 78-78 124-109 21-14 45-14 71-17 15-2 30-4 46-9a155 155 0 0040-21z" style="fill:url(#j)"/><path d="M248 375c-67 24-50 105-160 135l-9 2c-17 2-58 0-58 0a86 86 0 0011-2c61-18 94-98 170-126 15-2 30-4 46-9z" style="mix-blend-mode:overlay;fill:url(#c)"/><path d="M530 274c-98 11-83 84-180 118-84 29-140 87-158 118a54 54 0 00-5 13l-44-3 18-10c44-33 115-130 173-172 44-31 81-52 136-61l60-3z" style="mix-blend-mode:overlay;fill:url(#k)"/><path d="M250 523c0-38 49-68 74-74s46-16 80-30 216-94 257-182 17-59 59-132l49-40v86c-53 8-46 97-130 162-57 44-173 78-236 112s-116 54-104 92z" style="mix-blend-mode:overlay;fill:url(#l)"/><path d="M403 523c21-168 313-53 363-166-16 195-263 60-363 166z" style="mix-blend-mode:overlay;fill:url(#m)"/><g style="clip-path:url(#n)"><g style="opacity:.30000000000000004;mix-blend-mode:overlay"><path d="M358 517c0-12 7-27 22-43 36-39 114-79 206-80 75-1 150-32 183-74l1 1c-17 22-44 41-79 55a311 311 0 01-105 20c-91 1-169 41-205 79-14 16-21 31-21 42z" style="fill:#fff"/></g><g style="opacity:.30000000000000004;mix-blend-mode:overlay"><path d="M312 523c-7-42 63-84 123-113 14-7 38-16 65-27 56-21 126-48 155-71 20-17 41-49 59-77 20-30 37-57 50-57v2c-12 0-29 27-48 56-18 29-39 61-60 77-29 24-99 51-155 72-28 11-51 20-65 27-60 28-129 70-122 110z" style="fill:#fff"/></g><g style="opacity:.30000000000000004;mix-blend-mode:overlay"><path d="M232 523c-2-26 15-49 51-69s79-29 92-32c24-4 84-28 143-71 49-36 111-97 129-180l2 1c-18 83-81 144-130 180-59 44-120 67-144 72-54 11-145 43-141 99z" style="fill:#fff"/></g><g style="opacity:.30000000000000004;mix-blend-mode:overlay"><path d="M173 530h-2a215 215 0 0173-93c21-15 45-27 69-38 23-11 48-23 69-38 14-10 26-22 38-34l21-18c15-14 39-33 67-39l1 2c-28 6-52 25-67 38l-20 19c-12 11-25 23-39 33-21 16-46 28-70 39-23 11-47 22-68 37a213 213 0 00-72 92z" style="fill:#fff"/></g><g style="opacity:.30000000000000004;mix-blend-mode:overlay"><path d="M55 524h-6v-2c91 2 129-55 160-102 17-26 32-49 54-56l1 2c-21 7-36 29-54 56-30 45-67 102-155 102z" style="fill:#fff"/></g></g><path d="M323 500c13-70 101-123 234-149s36-222 119-260a100 100 0 01140 113c-13 56-63 130-226 170-281 70-122 141-47 136z" style="fill:#fff;opacity:.1"/><path d="M209 520c21-78 208-122 276-159s54-97-29-73-214 228-322 235 116-61 146-141-84-66-118 21-33 97-69 114 11-20-14-44-122-9-83 50 213-3 213-3z" style="fill:#fff;opacity:.1"/></g></g></svg>