<svg xmlns="http://www.w3.org/2000/svg" xmlns:xlink="http://www.w3.org/1999/xlink" viewBox="0 0 239.1 149.9" preserveAspectRatio="none"><defs><clipPath id="a" transform="translate(-11.4 17.6)"><polygon points="163.1 110 222.9 105.8 215.1 42.6 211.4 41.9 216.3 34.9 109.4 14.7 104.3 22 65.1 14.7 22.4 119.7 78.8 115.8 150.6 127.5 163.1 110" style="fill:none"/></clipPath><clipPath id="b" transform="translate(-11.4 17.6)"><path d="M240.1,34.9A42.8,42.8,0,1,1,197.3-7.9,42.8,42.8,0,0,1,240.1,34.9Z" style="fill:none"/></clipPath></defs><g style="isolation:isolate"><polygon points="31.7 127.7 139.3 145.1 204.9 52.6 98.1 32.3 31.7 127.7" style="fill:#01c2d3"/><polygon points="38.6 54.6 10.8 149.9 209.4 104.2 192.7 52.6 38.6 54.6" style="fill:#989898;opacity:0.4;mix-blend-mode:multiply"/><polygon points="53.7 32.3 11.1 137.4 211.6 123.4 203.8 60.2 53.7 32.3" style="fill:#ff6f40"/><g style="clip-path:url(#a)"><g style="mix-blend-mode:color-dodge"><g style="clip-path:url(#b)"><rect x="228.7" width="10.5" height="10.46" style="fill:none"/><path d="M246.5-12.4a1.2,1.2,0,0,1-1.2,1.3,1.3,1.3,0,0,1-1.3-1.3,1.3,1.3,0,0,1,1.3-1.3A1.2,1.2,0,0,1,246.5-12.4Z" transform="translate(-11.4 17.6)" style="fill:#fff"/><rect x="228.7" y="10.5" width="10.5" height="10.46" style="fill:none"/><path d="M246.5-1.9a1.2,1.2,0,0,1-1.2,1.2A1.2,1.2,0,0,1,244-1.9a1.3,1.3,0,0,1,1.3-1.3A1.2,1.2,0,0,1,246.5-1.9Z" transform="translate(-11.4 17.6)" style="fill:#fff"/><rect x="228.7" y="20.9" width="10.5" height="10.46" style="fill:none"/><path d="M246.5,8.5a1.2,1.2,0,0,1-1.2,1.3A1.3,1.3,0,0,1,244,8.5a1.2,1.2,0,0,1,1.3-1.2A1.2,1.2,0,0,1,246.5,8.5Z" transform="translate(-11.4 17.6)" style="fill:#fff"/><rect x="228.7" y="31.4" width="10.5" height="10.46" style="fill:none"/><path d="M246.5,19a1.2,1.2,0,0,1-1.2,1.3,1.3,1.3,0,0,1,0-2.6A1.2,1.2,0,0,1,246.5,19Z" transform="translate(-11.4 17.6)" style="fill:#fff"/><rect x="228.7" y="41.9" width="10.5" height="10.46" style="fill:none"/><path d="M246.5,29.5a1.2,1.2,0,0,1-1.2,1.2,1.2,1.2,0,0,1-1.3-1.2,1.3,1.3,0,0,1,1.3-1.3A1.2,1.2,0,0,1,246.5,29.5Z" transform="translate(-11.4 17.6)" style="fill:#fff"/><rect x="228.7" y="52.3" width="10.5" height="10.46" style="fill:none"/><path d="M246.5,39.9a1.2,1.2,0,0,1-1.2,1.3,1.3,1.3,0,0,1-1.3-1.3,1.2,1.2,0,0,1,1.3-1.2A1.2,1.2,0,0,1,246.5,39.9Z" transform="translate(-11.4 17.6)" style="fill:#fff"/><rect x="228.7" y="62.8" width="10.5" height="10.46" style="fill:none"/><path d="M246.5,50.4a1.2,1.2,0,0,1-1.2,1.3,1.3,1.3,0,0,1,0-2.6A1.2,1.2,0,0,1,246.5,50.4Z" transform="translate(-11.4 17.6)" style="fill:#fff"/><rect x="228.7" y="73.2" width="10.5" height="10.46" style="fill:none"/><path d="M246.5,60.8a1.2,1.2,0,0,1-1.2,1.3,1.3,1.3,0,0,1-1.3-1.3,1.2,1.2,0,0,1,1.3-1.2A1.2,1.2,0,0,1,246.5,60.8Z" transform="translate(-11.4 17.6)" style="fill:#fff"/><rect x="228.7" y="83.7" width="10.5" height="10.46" style="fill:none"/><path d="M246.5,71.3a1.2,1.2,0,0,1-1.2,1.3,1.3,1.3,0,0,1,0-2.6A1.2,1.2,0,0,1,246.5,71.3Z" transform="translate(-11.4 17.6)" style="fill:#fff"/><rect x="228.7" y="94.2" width="10.5" height="10.46" style="fill:none"/><path d="M246.5,81.8a1.2,1.2,0,0,1-1.2,1.2,1.2,1.2,0,0,1-1.3-1.2,1.3,1.3,0,0,1,1.3-1.3A1.2,1.2,0,0,1,246.5,81.8Z" transform="translate(-11.4 17.6)" style="fill:#fff"/><rect x="218.2" width="10.5" height="10.46" style="fill:none"/><path d="M236.1-12.4a1.3,1.3,0,0,1-1.3,1.3,1.3,1.3,0,0,1-1.3-1.3,1.3,1.3,0,0,1,1.3-1.3A1.3,1.3,0,0,1,236.1-12.4Z" transform="translate(-11.4 17.6)" style="fill:#fff"/><rect x="218.2" y="10.5" width="10.5" height="10.46" style="fill:none"/><path d="M236.1-1.9a1.2,1.2,0,0,1-1.3,1.2,1.2,1.2,0,0,1-1.3-1.2,1.3,1.3,0,0,1,1.3-1.3A1.3,1.3,0,0,1,236.1-1.9Z" transform="translate(-11.4 17.6)" style="fill:#fff"/><rect x="218.2" y="20.9" width="10.5" height="10.46" style="fill:none"/><path d="M236.1,8.5a1.3,1.3,0,1,1-2.6,0,1.3,1.3,0,0,1,2.6,0Z" transform="translate(-11.4 17.6)" style="fill:#fff"/><rect x="218.2" y="31.4" width="10.5" height="10.46" style="fill:none"/><path d="M236.1,19a1.3,1.3,0,1,1-1.3-1.3A1.3,1.3,0,0,1,236.1,19Z" transform="translate(-11.4 17.6)" style="fill:#fff"/><rect x="218.2" y="41.9" width="10.5" height="10.46" style="fill:none"/><path d="M236.1,29.5a1.3,1.3,0,0,1-2.6,0,1.3,1.3,0,1,1,2.6,0Z" transform="translate(-11.4 17.6)" style="fill:#fff"/><rect x="218.2" y="52.3" width="10.5" height="10.46" style="fill:none"/><path d="M236.1,39.9a1.3,1.3,0,0,1-2.6,0,1.3,1.3,0,0,1,2.6,0Z" transform="translate(-11.4 17.6)" style="fill:#fff"/><rect x="218.2" y="62.8" width="10.5" height="10.46" style="fill:none"/><path d="M236.1,50.4a1.3,1.3,0,1,1-1.3-1.3A1.3,1.3,0,0,1,236.1,50.4Z" transform="translate(-11.4 17.6)" style="fill:#fff"/><rect x="218.2" y="73.2" width="10.5" height="10.46" style="fill:none"/><path d="M236.1,60.8a1.3,1.3,0,0,1-2.6,0,1.3,1.3,0,0,1,2.6,0Z" transform="translate(-11.4 17.6)" style="fill:#fff"/><rect x="218.2" y="83.7" width="10.5" height="10.46" style="fill:none"/><path d="M236.1,71.3a1.3,1.3,0,1,1-1.3-1.3A1.3,1.3,0,0,1,236.1,71.3Z" transform="translate(-11.4 17.6)" style="fill:#fff"/><rect x="218.2" y="94.2" width="10.5" height="10.46" style="fill:none"/><path d="M236.1,81.8a1.3,1.3,0,0,1-2.6,0,1.3,1.3,0,1,1,2.6,0Z" transform="translate(-11.4 17.6)" style="fill:#fff"/><rect x="207.7" width="10.5" height="10.46" style="fill:none"/><path d="M225.6-12.4a1.3,1.3,0,0,1-1.3,1.3,1.2,1.2,0,0,1-1.2-1.3,1.2,1.2,0,0,1,1.2-1.3A1.3,1.3,0,0,1,225.6-12.4Z" transform="translate(-11.4 17.6)" style="fill:#fff"/><rect x="207.7" y="10.5" width="10.5" height="10.46" style="fill:none"/><path d="M225.6-1.9a1.2,1.2,0,0,1-1.3,1.2,1.2,1.2,0,0,1-1.2-1.2,1.2,1.2,0,0,1,1.2-1.3A1.3,1.3,0,0,1,225.6-1.9Z" transform="translate(-11.4 17.6)" style="fill:#fff"/><rect x="207.7" y="20.9" width="10.5" height="10.46" style="fill:none"/><path d="M225.6,8.5a1.3,1.3,0,0,1-1.3,1.3,1.2,1.2,0,0,1-1.2-1.3,1.2,1.2,0,0,1,1.2-1.2A1.2,1.2,0,0,1,225.6,8.5Z" transform="translate(-11.4 17.6)" style="fill:#fff"/><rect x="207.7" y="31.4" width="10.5" height="10.46" style="fill:none"/><path d="M225.6,19a1.3,1.3,0,0,1-1.3,1.3,1.3,1.3,0,0,1,0-2.6A1.3,1.3,0,0,1,225.6,19Z" transform="translate(-11.4 17.6)" style="fill:#fff"/><rect x="207.7" y="41.9" width="10.5" height="10.46" style="fill:none"/><path d="M225.6,29.5a1.2,1.2,0,0,1-1.3,1.2,1.2,1.2,0,0,1-1.2-1.2,1.2,1.2,0,0,1,1.2-1.3A1.3,1.3,0,0,1,225.6,29.5Z" transform="translate(-11.4 17.6)" style="fill:#fff"/><rect x="207.7" y="52.3" width="10.5" height="10.46" style="fill:none"/><path d="M225.6,39.9a1.3,1.3,0,0,1-1.3,1.3,1.2,1.2,0,0,1-1.2-1.3,1.2,1.2,0,0,1,1.2-1.2A1.2,1.2,0,0,1,225.6,39.9Z" transform="translate(-11.4 17.6)" style="fill:#fff"/><rect x="207.7" y="62.8" width="10.5" height="10.46" style="fill:none"/><path d="M225.6,50.4a1.3,1.3,0,0,1-1.3,1.3,1.3,1.3,0,0,1,0-2.6A1.3,1.3,0,0,1,225.6,50.4Z" transform="translate(-11.4 17.6)" style="fill:#fff"/><rect x="207.7" y="73.2" width="10.5" height="10.46" style="fill:none"/><path d="M225.6,60.8a1.3,1.3,0,0,1-1.3,1.3,1.2,1.2,0,0,1-1.2-1.3,1.2,1.2,0,0,1,1.2-1.2A1.2,1.2,0,0,1,225.6,60.8Z" transform="translate(-11.4 17.6)" style="fill:#fff"/><rect x="207.7" y="83.7" width="10.5" height="10.46" style="fill:none"/><path d="M225.6,71.3a1.3,1.3,0,0,1-1.3,1.3,1.3,1.3,0,0,1,0-2.6A1.3,1.3,0,0,1,225.6,71.3Z" transform="translate(-11.4 17.6)" style="fill:#fff"/><rect x="207.7" y="94.2" width="10.5" height="10.46" style="fill:none"/><path d="M225.6,81.8a1.2,1.2,0,0,1-1.3,1.2,1.2,1.2,0,0,1-1.2-1.2,1.2,1.2,0,0,1,1.2-1.3A1.3,1.3,0,0,1,225.6,81.8Z" transform="translate(-11.4 17.6)" style="fill:#fff"/><rect x="197.3" width="10.5" height="10.46" style="fill:none"/><path d="M215.1-12.4a1.2,1.2,0,0,1-1.2,1.3,1.3,1.3,0,0,1-1.3-1.3,1.3,1.3,0,0,1,1.3-1.3A1.2,1.2,0,0,1,215.1-12.4Z" transform="translate(-11.4 17.6)" style="fill:#fff"/><rect x="197.3" y="10.5" width="10.5" height="10.46" style="fill:none"/><path d="M215.1-1.9a1.2,1.2,0,0,1-1.2,1.2,1.2,1.2,0,0,1-1.3-1.2,1.3,1.3,0,0,1,1.3-1.3A1.2,1.2,0,0,1,215.1-1.9Z" transform="translate(-11.4 17.6)" style="fill:#fff"/><rect x="197.3" y="20.9" width="10.5" height="10.46" style="fill:none"/><circle cx="202.5" cy="26.2" r="1.3" style="fill:#fff"/><rect x="197.3" y="31.4" width="10.5" height="10.46" style="fill:none"/><path d="M215.1,19a1.2,1.2,0,0,1-1.2,1.3,1.3,1.3,0,0,1,0-2.6A1.2,1.2,0,0,1,215.1,19Z" transform="translate(-11.4 17.6)" style="fill:#fff"/><rect x="197.3" y="41.9" width="10.5" height="10.46" style="fill:none"/><path d="M215.1,29.5a1.2,1.2,0,0,1-1.2,1.2,1.2,1.2,0,0,1-1.3-1.2,1.3,1.3,0,0,1,1.3-1.3A1.2,1.2,0,0,1,215.1,29.5Z" transform="translate(-11.4 17.6)" style="fill:#fff"/><rect x="197.3" y="52.3" width="10.5" height="10.46" style="fill:none"/><path d="M215.1,39.9a1.2,1.2,0,0,1-1.2,1.3,1.3,1.3,0,0,1-1.3-1.3,1.2,1.2,0,0,1,1.3-1.2A1.2,1.2,0,0,1,215.1,39.9Z" transform="translate(-11.4 17.6)" style="fill:#fff"/><rect x="197.3" y="62.8" width="10.5" height="10.46" style="fill:none"/><path d="M215.1,50.4a1.2,1.2,0,0,1-1.2,1.3,1.3,1.3,0,0,1,0-2.6A1.2,1.2,0,0,1,215.1,50.4Z" transform="translate(-11.4 17.6)" style="fill:#fff"/><rect x="197.3" y="73.2" width="10.5" height="10.46" style="fill:none"/><path d="M215.1,60.8a1.2,1.2,0,0,1-1.2,1.3,1.3,1.3,0,0,1-1.3-1.3,1.2,1.2,0,0,1,1.3-1.2A1.2,1.2,0,0,1,215.1,60.8Z" transform="translate(-11.4 17.6)" style="fill:#fff"/><rect x="197.3" y="83.7" width="10.5" height="10.46" style="fill:none"/><path d="M215.1,71.3a1.2,1.2,0,0,1-1.2,1.3,1.3,1.3,0,0,1,0-2.6A1.2,1.2,0,0,1,215.1,71.3Z" transform="translate(-11.4 17.6)" style="fill:#fff"/><rect x="197.3" y="94.2" width="10.5" height="10.46" style="fill:none"/><path d="M215.1,81.8a1.2,1.2,0,0,1-1.2,1.2,1.2,1.2,0,0,1-1.3-1.2,1.3,1.3,0,0,1,1.3-1.3A1.2,1.2,0,0,1,215.1,81.8Z" transform="translate(-11.4 17.6)" style="fill:#fff"/><rect x="186.8" width="10.5" height="10.46" style="fill:none"/><path d="M204.7-12.4a1.3,1.3,0,0,1-1.3,1.3,1.3,1.3,0,0,1-1.3-1.3,1.3,1.3,0,0,1,1.3-1.3A1.3,1.3,0,0,1,204.7-12.4Z" transform="translate(-11.4 17.6)" style="fill:#fff"/><rect x="186.8" y="10.5" width="10.5" height="10.46" style="fill:none"/><path d="M204.7-1.9a1.2,1.2,0,0,1-1.3,1.2,1.2,1.2,0,0,1-1.3-1.2,1.3,1.3,0,0,1,1.3-1.3A1.3,1.3,0,0,1,204.7-1.9Z" transform="translate(-11.4 17.6)" style="fill:#fff"/><rect x="186.8" y="20.9" width="10.5" height="10.46" style="fill:none"/><path d="M204.7,8.5a1.3,1.3,0,1,1-2.6,0,1.3,1.3,0,0,1,2.6,0Z" transform="translate(-11.4 17.6)" style="fill:#fff"/><rect x="186.8" y="31.4" width="10.5" height="10.46" style="fill:none"/><path d="M204.7,19a1.3,1.3,0,1,1-1.3-1.3A1.3,1.3,0,0,1,204.7,19Z" transform="translate(-11.4 17.6)" style="fill:#fff"/><rect x="186.8" y="41.9" width="10.5" height="10.46" style="fill:none"/><path d="M204.7,29.5a1.3,1.3,0,0,1-2.6,0,1.3,1.3,0,1,1,2.6,0Z" transform="translate(-11.4 17.6)" style="fill:#fff"/><rect x="186.8" y="52.3" width="10.5" height="10.46" style="fill:none"/><path d="M204.7,39.9a1.3,1.3,0,0,1-2.6,0,1.3,1.3,0,0,1,2.6,0Z" transform="translate(-11.4 17.6)" style="fill:#fff"/><rect x="186.8" y="62.8" width="10.5" height="10.46" style="fill:none"/><path d="M204.7,50.4a1.3,1.3,0,1,1-1.3-1.3A1.3,1.3,0,0,1,204.7,50.4Z" transform="translate(-11.4 17.6)" style="fill:#fff"/><rect x="186.8" y="73.2" width="10.5" height="10.46" style="fill:none"/><path d="M204.7,60.8a1.3,1.3,0,0,1-2.6,0,1.3,1.3,0,0,1,2.6,0Z" transform="translate(-11.4 17.6)" style="fill:#fff"/><rect x="186.8" y="83.7" width="10.5" height="10.46" style="fill:none"/><path d="M204.7,71.3a1.3,1.3,0,1,1-1.3-1.3A1.3,1.3,0,0,1,204.7,71.3Z" transform="translate(-11.4 17.6)" style="fill:#fff"/><rect x="186.8" y="94.2" width="10.5" height="10.46" style="fill:none"/><path d="M204.7,81.8a1.3,1.3,0,0,1-2.6,0,1.3,1.3,0,1,1,2.6,0Z" transform="translate(-11.4 17.6)" style="fill:#fff"/><rect x="176.3" width="10.5" height="10.46" style="fill:none"/><path d="M194.2-12.4a1.3,1.3,0,0,1-1.3,1.3,1.2,1.2,0,0,1-1.2-1.3,1.2,1.2,0,0,1,1.2-1.3A1.3,1.3,0,0,1,194.2-12.4Z" transform="translate(-11.4 17.6)" style="fill:#fff"/><rect x="176.3" y="10.5" width="10.5" height="10.46" style="fill:none"/><path d="M194.2-1.9a1.2,1.2,0,0,1-1.3,1.2,1.2,1.2,0,0,1-1.2-1.2,1.2,1.2,0,0,1,1.2-1.3A1.3,1.3,0,0,1,194.2-1.9Z" transform="translate(-11.4 17.6)" style="fill:#fff"/><rect x="176.3" y="20.9" width="10.5" height="10.46" style="fill:none"/><path d="M194.2,8.5a1.3,1.3,0,0,1-1.3,1.3,1.2,1.2,0,0,1-1.2-1.3,1.2,1.2,0,0,1,1.2-1.2A1.2,1.2,0,0,1,194.2,8.5Z" transform="translate(-11.4 17.6)" style="fill:#fff"/><rect x="176.3" y="31.4" width="10.5" height="10.46" style="fill:none"/><path d="M194.2,19a1.3,1.3,0,0,1-1.3,1.3,1.3,1.3,0,0,1,0-2.6A1.3,1.3,0,0,1,194.2,19Z" transform="translate(-11.4 17.6)" style="fill:#fff"/><rect x="176.3" y="41.9" width="10.5" height="10.46" style="fill:none"/><path d="M194.2,29.5a1.2,1.2,0,0,1-1.3,1.2,1.2,1.2,0,0,1-1.2-1.2,1.2,1.2,0,0,1,1.2-1.3A1.3,1.3,0,0,1,194.2,29.5Z" transform="translate(-11.4 17.6)" style="fill:#fff"/><rect x="176.3" y="52.3" width="10.5" height="10.46" style="fill:none"/><path d="M194.2,39.9a1.3,1.3,0,0,1-1.3,1.3,1.2,1.2,0,0,1-1.2-1.3,1.2,1.2,0,0,1,1.2-1.2A1.2,1.2,0,0,1,194.2,39.9Z" transform="translate(-11.4 17.6)" style="fill:#fff"/><rect x="176.3" y="62.8" width="10.5" height="10.46" style="fill:none"/><path d="M194.2,50.4a1.3,1.3,0,0,1-1.3,1.3,1.3,1.3,0,0,1,0-2.6A1.3,1.3,0,0,1,194.2,50.4Z" transform="translate(-11.4 17.6)" style="fill:#fff"/><rect x="176.3" y="73.2" width="10.5" height="10.46" style="fill:none"/><path d="M194.2,60.8a1.3,1.3,0,0,1-1.3,1.3,1.2,1.2,0,0,1-1.2-1.3,1.2,1.2,0,0,1,1.2-1.2A1.2,1.2,0,0,1,194.2,60.8Z" transform="translate(-11.4 17.6)" style="fill:#fff"/><rect x="176.3" y="83.7" width="10.5" height="10.46" style="fill:none"/><path d="M194.2,71.3a1.3,1.3,0,0,1-1.3,1.3,1.3,1.3,0,0,1,0-2.6A1.3,1.3,0,0,1,194.2,71.3Z" transform="translate(-11.4 17.6)" style="fill:#fff"/><rect x="176.3" y="94.2" width="10.5" height="10.46" style="fill:none"/><path d="M194.2,81.8a1.2,1.2,0,0,1-1.3,1.2,1.2,1.2,0,0,1-1.2-1.2,1.2,1.2,0,0,1,1.2-1.3A1.3,1.3,0,0,1,194.2,81.8Z" transform="translate(-11.4 17.6)" style="fill:#fff"/><rect x="165.9" width="10.5" height="10.46" style="fill:none"/><path d="M183.7-12.4a1.2,1.2,0,0,1-1.2,1.3,1.3,1.3,0,0,1-1.3-1.3,1.3,1.3,0,0,1,1.3-1.3A1.2,1.2,0,0,1,183.7-12.4Z" transform="translate(-11.4 17.6)" style="fill:#fff"/><rect x="165.9" y="10.5" width="10.5" height="10.46" style="fill:none"/><path d="M183.7-1.9a1.2,1.2,0,0,1-1.2,1.2,1.2,1.2,0,0,1-1.3-1.2,1.3,1.3,0,0,1,1.3-1.3A1.2,1.2,0,0,1,183.7-1.9Z" transform="translate(-11.4 17.6)" style="fill:#fff"/><rect x="165.9" y="20.9" width="10.5" height="10.46" style="fill:none"/><path d="M183.7,8.5a1.2,1.2,0,0,1-1.2,1.3,1.3,1.3,0,0,1-1.3-1.3,1.2,1.2,0,0,1,1.3-1.2A1.2,1.2,0,0,1,183.7,8.5Z" transform="translate(-11.4 17.6)" style="fill:#fff"/><rect x="165.9" y="31.4" width="10.5" height="10.46" style="fill:none"/><path d="M183.7,19a1.2,1.2,0,0,1-1.2,1.3,1.3,1.3,0,0,1,0-2.6A1.2,1.2,0,0,1,183.7,19Z" transform="translate(-11.4 17.6)" style="fill:#fff"/><rect x="165.9" y="41.9" width="10.5" height="10.46" style="fill:none"/><path d="M183.7,29.5a1.2,1.2,0,0,1-1.2,1.2,1.2,1.2,0,0,1-1.3-1.2,1.3,1.3,0,0,1,1.3-1.3A1.2,1.2,0,0,1,183.7,29.5Z" transform="translate(-11.4 17.6)" style="fill:#fff"/><rect x="165.9" y="52.3" width="10.5" height="10.46" style="fill:none"/><path d="M183.7,39.9a1.2,1.2,0,0,1-1.2,1.3,1.3,1.3,0,0,1-1.3-1.3,1.2,1.2,0,0,1,1.3-1.2A1.2,1.2,0,0,1,183.7,39.9Z" transform="translate(-11.4 17.6)" style="fill:#fff"/><rect x="165.9" y="62.8" width="10.5" height="10.46" style="fill:none"/><path d="M183.7,50.4a1.2,1.2,0,0,1-1.2,1.3,1.3,1.3,0,0,1,0-2.6A1.2,1.2,0,0,1,183.7,50.4Z" transform="translate(-11.4 17.6)" style="fill:#fff"/><rect x="165.9" y="73.2" width="10.5" height="10.46" style="fill:none"/><path d="M183.7,60.8a1.2,1.2,0,0,1-1.2,1.3,1.3,1.3,0,0,1-1.3-1.3,1.2,1.2,0,0,1,1.3-1.2A1.2,1.2,0,0,1,183.7,60.8Z" transform="translate(-11.4 17.6)" style="fill:#fff"/><rect x="165.9" y="83.7" width="10.5" height="10.46" style="fill:none"/><path d="M183.7,71.3a1.2,1.2,0,0,1-1.2,1.3,1.3,1.3,0,0,1,0-2.6A1.2,1.2,0,0,1,183.7,71.3Z" transform="translate(-11.4 17.6)" style="fill:#fff"/><rect x="165.9" y="94.2" width="10.5" height="10.46" style="fill:none"/><path d="M183.7,81.8a1.2,1.2,0,0,1-1.2,1.2,1.2,1.2,0,0,1-1.3-1.2,1.3,1.3,0,0,1,1.3-1.3A1.2,1.2,0,0,1,183.7,81.8Z" transform="translate(-11.4 17.6)" style="fill:#fff"/><rect x="155.4" width="10.5" height="10.46" style="fill:none"/><path d="M173.3-12.4a1.3,1.3,0,0,1-1.3,1.3,1.3,1.3,0,0,1-1.3-1.3,1.3,1.3,0,0,1,1.3-1.3A1.3,1.3,0,0,1,173.3-12.4Z" transform="translate(-11.4 17.6)" style="fill:#fff"/><rect x="155.4" y="10.5" width="10.5" height="10.46" style="fill:none"/><path d="M173.3-1.9A1.2,1.2,0,0,1,172-.7a1.2,1.2,0,0,1-1.3-1.2A1.3,1.3,0,0,1,172-3.2,1.3,1.3,0,0,1,173.3-1.9Z" transform="translate(-11.4 17.6)" style="fill:#fff"/><rect x="155.4" y="20.9" width="10.5" height="10.46" style="fill:none"/><path d="M173.3,8.5a1.3,1.3,0,0,1-2.6,0,1.3,1.3,0,0,1,2.6,0Z" transform="translate(-11.4 17.6)" style="fill:#fff"/><rect x="155.4" y="31.4" width="10.5" height="10.46" style="fill:none"/><path d="M173.3,19a1.3,1.3,0,1,1-1.3-1.3A1.3,1.3,0,0,1,173.3,19Z" transform="translate(-11.4 17.6)" style="fill:#fff"/><rect x="155.4" y="41.9" width="10.5" height="10.46" style="fill:none"/><path d="M173.3,29.5a1.3,1.3,0,0,1-2.6,0,1.3,1.3,0,0,1,2.6,0Z" transform="translate(-11.4 17.6)" style="fill:#fff"/><rect x="155.4" y="52.3" width="10.5" height="10.46" style="fill:none"/><path d="M173.3,39.9a1.3,1.3,0,0,1-2.6,0,1.3,1.3,0,0,1,2.6,0Z" transform="translate(-11.4 17.6)" style="fill:#fff"/><rect x="155.4" y="62.8" width="10.5" height="10.46" style="fill:none"/><path d="M173.3,50.4a1.3,1.3,0,1,1-1.3-1.3A1.3,1.3,0,0,1,173.3,50.4Z" transform="translate(-11.4 17.6)" style="fill:#fff"/><rect x="155.4" y="73.2" width="10.5" height="10.46" style="fill:none"/><path d="M173.3,60.8a1.3,1.3,0,0,1-2.6,0,1.3,1.3,0,0,1,2.6,0Z" transform="translate(-11.4 17.6)" style="fill:#fff"/><rect x="155.4" y="83.7" width="10.5" height="10.46" style="fill:none"/><path d="M173.3,71.3A1.3,1.3,0,1,1,172,70,1.3,1.3,0,0,1,173.3,71.3Z" transform="translate(-11.4 17.6)" style="fill:#fff"/><rect x="155.4" y="94.2" width="10.5" height="10.46" style="fill:none"/><path d="M173.3,81.8a1.3,1.3,0,0,1-2.6,0,1.3,1.3,0,0,1,2.6,0Z" transform="translate(-11.4 17.6)" style="fill:#fff"/><rect x="144.9" width="10.5" height="10.46" style="fill:none"/><path d="M162.8-12.4a1.3,1.3,0,0,1-1.3,1.3,1.2,1.2,0,0,1-1.2-1.3,1.2,1.2,0,0,1,1.2-1.3A1.3,1.3,0,0,1,162.8-12.4Z" transform="translate(-11.4 17.6)" style="fill:#fff"/><rect x="144.9" y="10.5" width="10.5" height="10.46" style="fill:none"/><path d="M162.8-1.9a1.2,1.2,0,0,1-1.3,1.2,1.2,1.2,0,0,1-1.2-1.2,1.2,1.2,0,0,1,1.2-1.3A1.3,1.3,0,0,1,162.8-1.9Z" transform="translate(-11.4 17.6)" style="fill:#fff"/><rect x="144.9" y="20.9" width="10.5" height="10.46" style="fill:none"/><path d="M162.8,8.5a1.3,1.3,0,0,1-1.3,1.3,1.2,1.2,0,0,1-1.2-1.3,1.2,1.2,0,0,1,1.2-1.2A1.2,1.2,0,0,1,162.8,8.5Z" transform="translate(-11.4 17.6)" style="fill:#fff"/><rect x="144.9" y="31.4" width="10.5" height="10.46" style="fill:none"/><path d="M162.8,19a1.3,1.3,0,0,1-1.3,1.3,1.3,1.3,0,0,1,0-2.6A1.3,1.3,0,0,1,162.8,19Z" transform="translate(-11.4 17.6)" style="fill:#fff"/><rect x="144.9" y="41.9" width="10.5" height="10.46" style="fill:none"/><path d="M162.8,29.5a1.2,1.2,0,0,1-1.3,1.2,1.2,1.2,0,0,1-1.2-1.2,1.2,1.2,0,0,1,1.2-1.3A1.3,1.3,0,0,1,162.8,29.5Z" transform="translate(-11.4 17.6)" style="fill:#fff"/><rect x="144.9" y="52.3" width="10.5" height="10.46" style="fill:none"/><path d="M162.8,39.9a1.3,1.3,0,0,1-1.3,1.3,1.2,1.2,0,0,1-1.2-1.3,1.2,1.2,0,0,1,1.2-1.2A1.2,1.2,0,0,1,162.8,39.9Z" transform="translate(-11.4 17.6)" style="fill:#fff"/><rect x="144.9" y="62.8" width="10.5" height="10.46" style="fill:none"/><path d="M162.8,50.4a1.3,1.3,0,0,1-1.3,1.3,1.3,1.3,0,0,1,0-2.6A1.3,1.3,0,0,1,162.8,50.4Z" transform="translate(-11.4 17.6)" style="fill:#fff"/><rect x="144.9" y="73.2" width="10.5" height="10.46" style="fill:none"/><path d="M162.8,60.8a1.3,1.3,0,0,1-1.3,1.3,1.2,1.2,0,0,1-1.2-1.3,1.2,1.2,0,0,1,1.2-1.2A1.2,1.2,0,0,1,162.8,60.8Z" transform="translate(-11.4 17.6)" style="fill:#fff"/><rect x="144.9" y="83.7" width="10.5" height="10.46" style="fill:none"/><path d="M162.8,71.3a1.3,1.3,0,0,1-1.3,1.3,1.3,1.3,0,0,1,0-2.6A1.3,1.3,0,0,1,162.8,71.3Z" transform="translate(-11.4 17.6)" style="fill:#fff"/><rect x="144.9" y="94.2" width="10.5" height="10.46" style="fill:none"/><path d="M162.8,81.8a1.2,1.2,0,0,1-1.3,1.2,1.2,1.2,0,0,1-1.2-1.2,1.2,1.2,0,0,1,1.2-1.3A1.3,1.3,0,0,1,162.8,81.8Z" transform="translate(-11.4 17.6)" style="fill:#fff"/><rect x="134.5" width="10.5" height="10.46" style="fill:none"/><path d="M152.3-12.4a1.2,1.2,0,0,1-1.2,1.3,1.3,1.3,0,0,1-1.3-1.3,1.3,1.3,0,0,1,1.3-1.3A1.2,1.2,0,0,1,152.3-12.4Z" transform="translate(-11.4 17.6)" style="fill:#fff"/><rect x="134.5" y="10.5" width="10.5" height="10.46" style="fill:none"/><path d="M152.3-1.9a1.2,1.2,0,0,1-1.2,1.2,1.2,1.2,0,0,1-1.3-1.2,1.3,1.3,0,0,1,1.3-1.3A1.2,1.2,0,0,1,152.3-1.9Z" transform="translate(-11.4 17.6)" style="fill:#fff"/><rect x="134.5" y="20.9" width="10.5" height="10.46" style="fill:none"/><path d="M152.3,8.5a1.2,1.2,0,0,1-1.2,1.3,1.3,1.3,0,0,1-1.3-1.3,1.2,1.2,0,0,1,1.3-1.2A1.2,1.2,0,0,1,152.3,8.5Z" transform="translate(-11.4 17.6)" style="fill:#fff"/><rect x="134.5" y="31.4" width="10.5" height="10.46" style="fill:none"/><path d="M152.3,19a1.2,1.2,0,0,1-1.2,1.3,1.3,1.3,0,1,1,0-2.6A1.2,1.2,0,0,1,152.3,19Z" transform="translate(-11.4 17.6)" style="fill:#fff"/><rect x="134.5" y="41.9" width="10.5" height="10.46" style="fill:none"/><path d="M152.3,29.5a1.2,1.2,0,0,1-1.2,1.2,1.2,1.2,0,0,1-1.3-1.2,1.3,1.3,0,0,1,1.3-1.3A1.2,1.2,0,0,1,152.3,29.5Z" transform="translate(-11.4 17.6)" style="fill:#fff"/><rect x="134.5" y="52.3" width="10.5" height="10.46" style="fill:none"/><path d="M152.3,39.9a1.2,1.2,0,0,1-1.2,1.3,1.3,1.3,0,0,1-1.3-1.3,1.2,1.2,0,0,1,1.3-1.2A1.2,1.2,0,0,1,152.3,39.9Z" transform="translate(-11.4 17.6)" style="fill:#fff"/><rect x="134.5" y="62.8" width="10.5" height="10.46" style="fill:none"/><path d="M152.3,50.4a1.2,1.2,0,0,1-1.2,1.3,1.3,1.3,0,0,1,0-2.6A1.2,1.2,0,0,1,152.3,50.4Z" transform="translate(-11.4 17.6)" style="fill:#fff"/><rect x="134.5" y="73.2" width="10.5" height="10.46" style="fill:none"/><path d="M152.3,60.8a1.2,1.2,0,0,1-1.2,1.3,1.3,1.3,0,0,1-1.3-1.3,1.2,1.2,0,0,1,1.3-1.2A1.2,1.2,0,0,1,152.3,60.8Z" transform="translate(-11.4 17.6)" style="fill:#fff"/><rect x="134.5" y="83.7" width="10.5" height="10.46" style="fill:none"/><path d="M152.3,71.3a1.2,1.2,0,0,1-1.2,1.3,1.3,1.3,0,1,1,0-2.6A1.2,1.2,0,0,1,152.3,71.3Z" transform="translate(-11.4 17.6)" style="fill:#fff"/><rect x="134.5" y="94.2" width="10.5" height="10.46" style="fill:none"/><path d="M152.3,81.8a1.2,1.2,0,0,1-1.2,1.2,1.2,1.2,0,0,1-1.3-1.2,1.3,1.3,0,0,1,1.3-1.3A1.2,1.2,0,0,1,152.3,81.8Z" transform="translate(-11.4 17.6)" style="fill:#fff"/></g></g></g><rect x="175" y="115.8" width="23.7" height="23.73" style="fill:#ffd237"/><rect x="200.6" y="92.8" width="15.8" height="15.8" style="fill:#7b3efe"/><rect x="27.3" y="24.4" width="15.8" height="15.8" style="fill:#fd3e96"/><polyline points="20 96.6 2.2 145.1 81.8 142.3" style="fill:none;stroke:#01c2d3;stroke-miterlimit:10;stroke-width:3px"/></g></svg>