<svg xmlns="http://www.w3.org/2000/svg" viewBox="0 0 241 188" preserveAspectRatio="none"><defs><clipPath id="a" transform="translate(35 -10)"><path d="M198 22L30 60l-2 25-15 3-5 68 170-38v-14l14-3 6-79z" style="fill:none"/></clipPath><clipPath id="b" transform="translate(35 -10)"><path d="M60 146a43 43 0 11-43-43 43 43 0 0143 43z" style="fill:none"/></clipPath></defs><g style="isolation:isolate"><path d="M157 29l76-17-3 49" style="fill:#58c3ef;stroke:#7b49ff;stroke-miterlimit:10;stroke-width:14px"/><path d="M213 108L44 146l4-68 170-38-5 68z" style="fill:#7b3efe"/><path d="M224 103L52 116l17-78 172-13-17 78z" style="fill:#989898;opacity:.4;mix-blend-mode:multiply"/><path d="M228 91L60 129l5-79 168-38-5 79z" style="fill:#58c3ef"/><path d="M157 8l-13-6-4 24 17-18zM172 136h11l-4-17-7 17z" style="fill:#ff6f40"/><path d="M223 121l-3-10-15 9 18 1zM206 147l8-11-22-11 14 22zM115 0l-12 13 27 15-15-28z" style="fill:#ffd237"/><g style="clip-path:url(#a)"><g style="mix-blend-mode:color-dodge"><g style="clip-path:url(#b)"><path d="M94 84h11v11H94z" style="fill:none"/><path d="M101 89a1 1 0 11-2-2 1 1 0 012 2z" style="fill:#fff"/><path d="M94 94h11v11H94z" style="fill:none"/><path d="M101 99a1 1 0 11-2-1 1 1 0 012 1z" style="fill:#fff"/><path d="M94 104h11v11H94z" style="fill:none"/><path d="M101 110a1 1 0 11-2-2 1 1 0 012 2z" style="fill:#fff"/><path d="M94 115h11v11H94z" style="fill:none"/><path d="M101 120a1 1 0 11-2-1 1 1 0 012 1z" style="fill:#fff"/><path d="M94 125h11v11H94z" style="fill:none"/><path d="M101 131a1 1 0 11-2-2 1 1 0 012 2z" style="fill:#fff"/><path d="M94 136h11v11H94z" style="fill:none"/><path d="M101 141a1 1 0 11-2-1 1 1 0 012 1z" style="fill:#fff"/><path d="M94 146h11v11H94z" style="fill:none"/><path d="M101 151a1 1 0 11-2-1 1 1 0 012 1z" style="fill:#fff"/><path d="M94 157h11v11H94z" style="fill:none"/><path d="M101 162a1 1 0 11-2-1 1 1 0 012 1z" style="fill:#fff"/><path d="M94 167h11v11H94z" style="fill:none"/><path d="M101 172a1 1 0 11-2-1 1 1 0 012 1z" style="fill:#fff"/><path d="M94 178h11v11H94z" style="fill:none"/><path d="M101 183a1 1 0 11-2-1 1 1 0 012 1z" style="fill:#fff"/><path d="M84 84h11v11H84z" style="fill:none"/><path d="M90 89a1 1 0 11-1-2 1 1 0 011 2z" style="fill:#fff"/><path d="M84 94h11v11H84z" style="fill:none"/><path d="M90 99a1 1 0 11-1-1 1 1 0 011 1z" style="fill:#fff"/><path d="M84 104h11v11H84z" style="fill:none"/><path d="M90 110a1 1 0 11-1-2 1 1 0 011 2z" style="fill:#fff"/><path d="M84 115h11v11H84z" style="fill:none"/><path d="M90 120a1 1 0 11-1-1 1 1 0 011 1z" style="fill:#fff"/><path d="M84 125h11v11H84z" style="fill:none"/><path d="M90 131a1 1 0 11-1-2 1 1 0 011 2z" style="fill:#fff"/><path d="M84 136h11v11H84z" style="fill:none"/><path d="M90 141a1 1 0 11-1-1 1 1 0 011 1z" style="fill:#fff"/><path d="M84 146h11v11H84z" style="fill:none"/><path d="M90 151a1 1 0 11-1-1 1 1 0 011 1z" style="fill:#fff"/><path d="M84 157h11v11H84z" style="fill:none"/><path d="M90 162a1 1 0 11-1-1 1 1 0 011 1z" style="fill:#fff"/><path d="M84 167h11v11H84z" style="fill:none"/><path d="M90 172a1 1 0 11-1-1 1 1 0 011 1z" style="fill:#fff"/><path d="M84 178h11v11H84z" style="fill:none"/><path d="M90 183a1 1 0 11-1-1 1 1 0 011 1z" style="fill:#fff"/><path d="M73 84h11v11H73z" style="fill:none"/><path d="M80 89a1 1 0 11-2-2 1 1 0 012 2z" style="fill:#fff"/><path d="M73 94h11v11H73z" style="fill:none"/><path d="M80 99a1 1 0 11-2-1 1 1 0 012 1z" style="fill:#fff"/><path d="M73 104h11v11H73z" style="fill:none"/><path d="M80 110a1 1 0 11-2-2 1 1 0 012 2z" style="fill:#fff"/><path d="M73 115h11v11H73z" style="fill:none"/><path d="M80 120a1 1 0 11-2-1 1 1 0 012 1z" style="fill:#fff"/><path d="M73 125h11v11H73z" style="fill:none"/><path d="M80 131a1 1 0 11-2-2 1 1 0 012 2z" style="fill:#fff"/><path d="M73 136h11v11H73z" style="fill:none"/><path d="M80 141a1 1 0 11-2-1 1 1 0 012 1z" style="fill:#fff"/><path d="M73 146h11v11H73z" style="fill:none"/><path d="M80 151a1 1 0 11-2-1 1 1 0 012 1z" style="fill:#fff"/><path d="M73 157h11v11H73z" style="fill:none"/><path d="M80 162a1 1 0 11-2-1 1 1 0 012 1z" style="fill:#fff"/><path d="M73 167h11v11H73z" style="fill:none"/><path d="M80 172a1 1 0 11-2-1 1 1 0 012 1z" style="fill:#fff"/><path d="M73 178h11v11H73z" style="fill:none"/><path d="M80 183a1 1 0 11-2-1 1 1 0 012 1z" style="fill:#fff"/><path d="M63 84h11v11H63z" style="fill:none"/><path d="M69 89a1 1 0 11-1-2 1 1 0 011 2z" style="fill:#fff"/><path d="M63 94h11v11H63z" style="fill:none"/><path d="M69 99a1 1 0 11-1-1 1 1 0 011 1z" style="fill:#fff"/><path d="M63 104h11v11H63z" style="fill:none"/><path d="M69 110a1 1 0 11-1-2 1 1 0 011 2z" style="fill:#fff"/><path d="M63 115h11v11H63z" style="fill:none"/><path d="M69 120a1 1 0 11-1-1 1 1 0 011 1z" style="fill:#fff"/><path d="M63 125h11v11H63z" style="fill:none"/><path d="M69 131a1 1 0 11-1-2 1 1 0 011 2z" style="fill:#fff"/><path d="M63 136h11v11H63z" style="fill:none"/><path d="M69 141a1 1 0 11-1-1 1 1 0 011 1z" style="fill:#fff"/><path d="M63 146h11v11H63z" style="fill:none"/><path d="M69 151a1 1 0 11-1-1 1 1 0 011 1z" style="fill:#fff"/><path d="M63 157h11v11H63z" style="fill:none"/><path d="M69 162a1 1 0 11-1-1 1 1 0 011 1z" style="fill:#fff"/><path d="M63 167h11v11H63z" style="fill:none"/><path d="M69 172a1 1 0 11-1-1 1 1 0 011 1z" style="fill:#fff"/><path d="M63 178h11v11H63z" style="fill:none"/><path d="M69 183a1 1 0 11-1-1 1 1 0 011 1z" style="fill:#fff"/><path d="M52 84h11v11H52z" style="fill:none"/><path d="M59 89a1 1 0 11-1-2 1 1 0 011 2z" style="fill:#fff"/><path d="M52 94h11v11H52z" style="fill:none"/><path d="M59 99a1 1 0 11-1-1 1 1 0 011 1z" style="fill:#fff"/><path d="M52 104h11v11H52z" style="fill:none"/><path d="M59 110a1 1 0 11-1-2 1 1 0 011 2z" style="fill:#fff"/><path d="M52 115h11v11H52z" style="fill:none"/><path d="M59 120a1 1 0 11-1-1 1 1 0 011 1z" style="fill:#fff"/><path d="M52 125h11v11H52z" style="fill:none"/><path d="M59 131a1 1 0 11-1-2 1 1 0 011 2z" style="fill:#fff"/><path d="M52 136h11v11H52z" style="fill:none"/><path d="M59 141a1 1 0 11-1-1 1 1 0 011 1z" style="fill:#fff"/><path d="M52 146h11v11H52z" style="fill:none"/><path d="M59 151a1 1 0 11-1-1 1 1 0 011 1z" style="fill:#fff"/><path d="M52 157h11v11H52z" style="fill:none"/><path d="M59 162a1 1 0 11-1-1 1 1 0 011 1z" style="fill:#fff"/><path d="M52 167h11v11H52z" style="fill:none"/><path d="M59 172a1 1 0 11-1-1 1 1 0 011 1z" style="fill:#fff"/><path d="M52 178h11v11H52z" style="fill:none"/><path d="M59 183a1 1 0 11-1-1 1 1 0 011 1z" style="fill:#fff"/><path d="M42 84h11v11H42z" style="fill:none"/><path d="M48 89a1 1 0 11-1-2 1 1 0 011 2z" style="fill:#fff"/><path d="M42 94h11v11H42z" style="fill:none"/><path d="M48 99a1 1 0 11-1-1 1 1 0 011 1z" style="fill:#fff"/><path d="M42 104h11v11H42z" style="fill:none"/><path d="M48 110a1 1 0 11-1-2 1 1 0 011 2z" style="fill:#fff"/><path d="M42 115h11v11H42z" style="fill:none"/><path d="M48 120a1 1 0 11-1-1 1 1 0 011 1z" style="fill:#fff"/><path d="M42 125h11v11H42z" style="fill:none"/><path d="M48 131a1 1 0 11-1-2 1 1 0 011 2z" style="fill:#fff"/><path d="M42 136h11v11H42z" style="fill:none"/><path d="M48 141a1 1 0 11-1-1 1 1 0 011 1z" style="fill:#fff"/><path d="M42 146h11v11H42z" style="fill:none"/><path d="M48 151a1 1 0 11-1-1 1 1 0 011 1z" style="fill:#fff"/><path d="M42 157h11v11H42z" style="fill:none"/><path d="M48 162a1 1 0 11-1-1 1 1 0 011 1z" style="fill:#fff"/><path d="M42 167h11v11H42z" style="fill:none"/><path d="M48 172a1 1 0 11-1-1 1 1 0 011 1z" style="fill:#fff"/><path d="M42 178h11v11H42z" style="fill:none"/><path d="M48 183a1 1 0 11-1-1 1 1 0 011 1z" style="fill:#fff"/><path d="M31 84h11v11H31z" style="fill:none"/><path d="M38 89a1 1 0 11-1-2 1 1 0 011 2z" style="fill:#fff"/><path d="M31 94h11v11H31z" style="fill:none"/><path d="M38 99a1 1 0 11-1-1 1 1 0 011 1z" style="fill:#fff"/><path d="M31 104h11v11H31z" style="fill:none"/><path d="M38 110a1 1 0 11-1-2 1 1 0 011 2z" style="fill:#fff"/><path d="M31 115h11v11H31z" style="fill:none"/><path d="M38 120a1 1 0 11-1-1 1 1 0 011 1z" style="fill:#fff"/><path d="M31 125h11v11H31z" style="fill:none"/><path d="M38 131a1 1 0 11-1-2 1 1 0 011 2z" style="fill:#fff"/><path d="M31 136h11v11H31z" style="fill:none"/><path d="M38 141a1 1 0 11-1-1 1 1 0 011 1z" style="fill:#fff"/><path d="M31 146h11v11H31z" style="fill:none"/><path d="M38 151a1 1 0 11-1-1 1 1 0 011 1z" style="fill:#fff"/><path d="M31 157h11v11H31z" style="fill:none"/><path d="M38 162a1 1 0 11-1-1 1 1 0 011 1z" style="fill:#fff"/><path d="M31 167h11v11H31z" style="fill:none"/><path d="M38 172a1 1 0 11-1-1 1 1 0 011 1z" style="fill:#fff"/><path d="M31 178h11v11H31z" style="fill:none"/><path d="M38 183a1 1 0 11-1-1 1 1 0 011 1z" style="fill:#fff"/><path d="M21 84h11v11H21z" style="fill:none"/><path d="M27 89a1 1 0 01-1 1 1 1 0 01-1-1 1 1 0 011-2 1 1 0 011 2z" style="fill:#fff"/><path d="M21 94h11v11H21z" style="fill:none"/><path d="M27 99a1 1 0 01-1 1 1 1 0 01-1-1 1 1 0 011-1 1 1 0 011 1z" style="fill:#fff"/><path d="M21 104h11v11H21z" style="fill:none"/><path d="M27 110a1 1 0 01-1 1 1 1 0 01-1-1 1 1 0 011-2 1 1 0 011 2z" style="fill:#fff"/><path d="M21 115h11v11H21z" style="fill:none"/><path d="M27 120a1 1 0 01-1 1 1 1 0 01-1-1 1 1 0 011-1 1 1 0 011 1z" style="fill:#fff"/><path d="M21 125h11v11H21z" style="fill:none"/><path d="M27 131a1 1 0 01-1 1 1 1 0 01-1-1 1 1 0 011-2 1 1 0 011 2z" style="fill:#fff"/><path d="M21 136h11v11H21z" style="fill:none"/><path d="M27 141a1 1 0 01-1 1 1 1 0 01-1-1 1 1 0 011-1 1 1 0 011 1z" style="fill:#fff"/><path d="M21 146h11v11H21z" style="fill:none"/><path d="M27 151a1 1 0 01-1 2 1 1 0 01-1-2 1 1 0 011-1 1 1 0 011 1z" style="fill:#fff"/><path d="M21 157h11v11H21z" style="fill:none"/><path d="M27 162a1 1 0 01-1 1 1 1 0 01-1-1 1 1 0 011-1 1 1 0 011 1z" style="fill:#fff"/><path d="M21 167h11v11H21z" style="fill:none"/><path d="M27 172a1 1 0 01-1 2 1 1 0 01-1-2 1 1 0 011-1 1 1 0 011 1z" style="fill:#fff"/><path d="M21 178h11v11H21z" style="fill:none"/><path d="M27 183a1 1 0 01-1 1 1 1 0 01-1-1 1 1 0 011-1 1 1 0 011 1z" style="fill:#fff"/><path d="M11 84h11v11H11z" style="fill:none"/><path d="M17 89a1 1 0 01-1 1 1 1 0 01-2-1 1 1 0 012-2 1 1 0 011 2z" style="fill:#fff"/><path d="M11 94h11v11H11z" style="fill:none"/><path d="M17 99a1 1 0 01-1 1 1 1 0 01-2-1 1 1 0 012-1 1 1 0 011 1z" style="fill:#fff"/><path d="M11 104h11v11H11z" style="fill:none"/><path d="M17 110a1 1 0 01-1 1 1 1 0 01-2-1 1 1 0 012-2 1 1 0 011 2z" style="fill:#fff"/><path d="M11 115h11v11H11z" style="fill:none"/><path d="M17 120a1 1 0 01-1 1 1 1 0 01-2-1 1 1 0 012-1 1 1 0 011 1z" style="fill:#fff"/><path d="M11 125h11v11H11z" style="fill:none"/><path d="M17 131a1 1 0 01-1 1 1 1 0 01-2-1 1 1 0 012-2 1 1 0 011 2z" style="fill:#fff"/><path d="M11 136h11v11H11z" style="fill:none"/><path d="M17 141a1 1 0 01-1 1 1 1 0 01-2-1 1 1 0 012-1 1 1 0 011 1z" style="fill:#fff"/><path d="M11 146h11v11H11z" style="fill:none"/><path d="M17 151a1 1 0 01-1 2 1 1 0 01-2-2 1 1 0 012-1 1 1 0 011 1z" style="fill:#fff"/><path d="M11 157h11v11H11z" style="fill:none"/><path d="M17 162a1 1 0 01-1 1 1 1 0 01-2-1 1 1 0 012-1 1 1 0 011 1z" style="fill:#fff"/><path d="M11 167h11v11H11z" style="fill:none"/><path d="M17 172a1 1 0 01-1 2 1 1 0 01-2-2 1 1 0 012-1 1 1 0 011 1z" style="fill:#fff"/><path d="M11 178h11v11H11z" style="fill:none"/><path d="M17 183a1 1 0 01-1 1 1 1 0 01-2-1 1 1 0 012-1 1 1 0 011 1z" style="fill:#fff"/><path d="M0 84h11v11H0z" style="fill:none"/><path d="M7 89a1 1 0 01-2 1 1 1 0 01-1-1 1 1 0 011-2 1 1 0 012 2z" style="fill:#fff"/><path d="M0 94h11v11H0z" style="fill:none"/><path d="M7 99a1 1 0 01-2 1 1 1 0 01-1-1 1 1 0 011-1 1 1 0 012 1z" style="fill:#fff"/><path d="M0 104h11v11H0z" style="fill:none"/><path d="M7 110a1 1 0 01-2 1 1 1 0 01-1-1 1 1 0 011-2 1 1 0 012 2z" style="fill:#fff"/><path d="M0 115h11v11H0z" style="fill:none"/><path d="M7 120a1 1 0 01-2 1 1 1 0 01-1-1 1 1 0 011-1 1 1 0 012 1z" style="fill:#fff"/><path d="M0 125h11v11H0z" style="fill:none"/><path d="M7 131a1 1 0 01-2 1 1 1 0 01-1-1 1 1 0 011-2 1 1 0 012 2z" style="fill:#fff"/><path d="M0 136h11v11H0z" style="fill:none"/><path d="M7 141a1 1 0 01-2 1 1 1 0 01-1-1 1 1 0 011-1 1 1 0 012 1z" style="fill:#fff"/><path d="M0 146h11v11H0z" style="fill:none"/><path d="M7 151a1 1 0 01-2 2 1 1 0 01-1-2 1 1 0 011-1 1 1 0 012 1z" style="fill:#fff"/><path d="M0 157h11v11H0z" style="fill:none"/><path d="M7 162a1 1 0 01-2 1 1 1 0 01-1-1 1 1 0 011-1 1 1 0 012 1z" style="fill:#fff"/><path d="M0 167h11v11H0z" style="fill:none"/><path d="M7 172a1 1 0 01-2 2 1 1 0 01-1-2 1 1 0 011-1 1 1 0 012 1z" style="fill:#fff"/><path d="M0 178h11v11H0z" style="fill:none"/><path d="M7 183a1 1 0 01-2 1 1 1 0 01-1-1 1 1 0 011-1 1 1 0 012 1z" style="fill:#fff"/></g></g></g></g></svg>