<svg xmlns="http://www.w3.org/2000/svg"  preserveAspectRatio="none"><path d="M509 174c-3-4-7-6-12-7l-149-23V18c0-10-7-18-17-18H18C8 0 0 8 0 18v313c0 10 8 18 18 18h116l-14 95c-2 9 5 19 14 20l310 48c9 1 18-6 20-15l8-52c1-9-13-12-15-2-1 7-6 55-11 54l-310-48c-1 0-2-1-2-3l15-97h17l-12 79c-1 4 2 8 6 8l267 41c4 1 8-2 9-6l41-267c1-4-2-8-6-9l-123-19v-17l147 23c1 0 2 1 2 3l-34 220c-1 10 13 12 15 2l34-220c1-4-1-9-3-13zM15 331V18c0-2 1-3 3-3h313c1 0 2 1 2 3v313c0 2-1 3-2 3H18c-2 0-3-1-3-3zm446-122l-39 252-252-38 11-74h150c10 0 17-8 17-18V191z"/><path d="M309 31H39c-4 0-7 4-7 8v37c0 10 15 10 15 0V46h255v256H47V116c0-9-15-9-15 0v194c0 4 3 7 7 7h270c4 0 8-3 8-7V39c0-4-4-8-8-8z"/><path d="M174 249l3-1c1 0 21-8 41-24 28-22 43-47 43-73 1-27-20-54-49-54-15 0-29 7-38 20-9-13-23-20-38-20-27 0-49 24-49 54 0 62 81 96 84 97l3 1zm-72-98c0-22 15-39 34-39 14 0 26 9 31 23 3 6 12 6 14 0 6-14 18-23 31-23 20 0 34 20 34 39 0 46-58 76-72 82-14-6-72-35-72-82z"/></svg>